<?xml version="1.0" encoding="UTF-8"?>
<svg id="Layer_2" data-name="Layer 2" xmlns="http://www.w3.org/2000/svg" viewBox="0 0 788.94 594.65">
  <g id="Layer_1-2" data-name="Layer 1">
    <g>
      <path d="M173.2,151.73v-31.64c0-17.04-14.6-30.83-31.64-30.83s-27.96,13.81-31.64,30.83L31.36,532.18c-2.53,17.15,14.6,30.83,31.64,30.83s31.64-13.79,31.64-30.83v-31.64h30.83v31.64c0,33.26-26.77,62.47-62.47,62.47S-4.66,567.29,.53,532.18L79.09,120.09c4.59-33.66,27.58-62.47,62.47-62.47s61.65,27.58,62.47,62.47v31.64h-30.83Z"/>
      <path d="M544.88,563.01v31.64H153.86L257.7,31.64H88.39L96.43,0h197.77l-103.84,563.01h354.52Zm0-500.54v454.3h-30.83V62.47c0-17.04-12.98-30.83-31.64-30.83s-31.64,12.17-31.64,30.83v454.3h-30.83V62.47c0-17.04-14.6-30.83-31.64-30.83s-31.64,12.17-31.64,30.83v454.3h-30.83V0h30.83V15.41c8.92-9.74,21.9-15.41,34.88-15.41,21.9,0,33.26,8.92,43.81,21.09,11.36-12.17,29.21-21.09,47.86-21.09,34.88,0,61.65,24.34,61.65,62.47Z"/>
      <path d="M711.18,124.89v469.75h-31.64V124.89c0-17.04-13.79-30.83-30.83-30.83-18.66,0-31.64,13.79-31.64,30.83v469.75h-31.64V62.43h31.64v15.41c7.3-8.92,22.72-15.41,34.88-15.41,37.32,0,59.22,28.39,59.22,62.47Z"/>
      <path d="M788.94,35.69h0V594.65h-31.64V35.69h-171.87V4.06h203.51v31.64Z"/>
    </g>
  </g>
</svg>